/* XPM */
static char *Castle_Purple[] = {
/* columns rows colors chars-per-pixel */
"64 51 212 2 ",
"   c #1D2130",
".  c #2D2A35",
"X  c #23253B",
"o  c #272735",
"O  c #322E35",
"+  c #332E39",
"@  c #3A333C",
"#  c #443A3B",
"$  c #4B3E3C",
"%  c #42373C",
"&  c #4F413D",
"*  c #56453E",
"=  c #322F47",
"-  c #343245",
";  c #3C3545",
":  c #34314D",
">  c #3F3A4C",
",  c #3B354D",
"<  c #3E3A54",
"1  c #3A3654",
"2  c #282842",
"3  c #443C46",
"4  c #4B3E43",
"5  c #413748",
"6  c #443A4A",
"7  c #4D3F4F",
"8  c #433D53",
"9  c #493E53",
"0  c #423D5C",
"q  c #483E59",
"w  c #43375D",
"e  c #4A3E62",
"r  c #493F65",
"t  c #4D4047",
"y  c #544443",
"u  c #5A4645",
"i  c #574843",
"p  c #5D4943",
"a  c #55454B",
"s  c #5D4C4C",
"d  c #4A4154",
"f  c #46415D",
"g  c #4B425D",
"h  c #53455B",
"j  c #544A5D",
"k  c #5A4B56",
"l  c #5A5054",
"z  c #624D42",
"x  c #634D49",
"c  c #6D5445",
"v  c #66514B",
"b  c #6C534B",
"n  c #685448",
"m  c #715746",
"M  c #72574D",
"N  c #765A4C",
"B  c #7B5E4C",
"V  c #795D47",
"C  c #645453",
"Z  c #6D5C54",
"A  c #69575A",
"S  c #775C56",
"D  c #7C604B",
"F  c #75624E",
"G  c #796157",
"H  c #464261",
"J  c #4B4564",
"K  c #4E4369",
"L  c #4F496A",
"P  c #4E4867",
"I  c #524464",
"U  c #5A4B63",
"Y  c #54456B",
"T  c #524A6C",
"R  c #5D4B6C",
"E  c #584766",
"W  c #574673",
"Q  c #554C72",
"!  c #5D4C74",
"~  c #5B497A",
"^  c #5F507A",
"/  c #624D6B",
"(  c #624E65",
")  c #645464",
"_  c #645469",
"`  c #6C596A",
"'  c #6B516F",
"]  c #755D6A",
"[  c #624D73",
"{  c #634D7D",
"}  c #645176",
"|  c #685176",
" . c #62537C",
".. c #6B567A",
"X. c #745A79",
"o. c #7B5C7C",
"O. c #715876",
"+. c #7A6667",
"@. c #72617C",
"#. c #7C637C",
"$. c #786476",
"%. c #83644B",
"&. c #8A674C",
"*. c #8C6A4D",
"=. c #936D4F",
"-. c #95714F",
";. c #9B734F",
":. c #846351",
">. c #8C6C52",
",. c #876A57",
"<. c #946D51",
"1. c #986F52",
"2. c #8C7353",
"3. c #857058",
"4. c #957153",
"5. c #9B7351",
"6. c #9E7A53",
"7. c #9B7D5B",
"8. c #977A5B",
"9. c #A27751",
"0. c #A47A53",
"q. c #AB7E54",
"w. c #A27E58",
"e. c #836E6F",
"r. c #8F746E",
"t. c #987E66",
"y. c #82677E",
"u. c #9F835C",
"i. c #AC8156",
"p. c #AC8559",
"a. c #A8885A",
"s. c #B18255",
"d. c #B48658",
"f. c #B48B5B",
"g. c #BA8B59",
"h. c #B9915F",
"j. c #B08F60",
"k. c #AF9163",
"l. c #BC9461",
"z. c #BD9B64",
"x. c #A88C67",
"c. c #C49B63",
"v. c #C89E64",
"b. c #CAA266",
"n. c #CCA669",
"m. c #CEA96B",
"M. c #C4A066",
"N. c #D2AC6C",
"B. c #D6B06E",
"V. c #D8B36F",
"C. c #DAB570",
"Z. c #664E82",
"A. c #645283",
"S. c #6A5484",
"D. c #6C558B",
"F. c #675389",
"G. c #7B5D82",
"H. c #745A8C",
"J. c #755789",
"K. c #755A92",
"L. c #7A5B96",
"P. c #7A5B97",
"I. c #7D6589",
"U. c #805E99",
"Y. c #846683",
"T. c #896A84",
"R. c #88668A",
"E. c #956D8E",
"W. c #897187",
"Q. c #93748C",
"!. c #967A8F",
"~. c #987D8A",
"^. c #856394",
"/. c #8D6794",
"(. c #8F6894",
"). c #8C669A",
"_. c #84619B",
"`. c #946C93",
"'. c #996F94",
"]. c #946B9B",
"[. c #996E9C",
"{. c #9B7194",
"}. c #9D719C",
"|. c #997A91",
" X c #A2759C",
".X c #A8799D",
"XX c #A27D9B",
"oX c #AA7CA1",
"OX c #9E819A",
"+X c #A4849A",
"@X c #A9829D",
"#X c #AD899E",
"$X c #AC84A2",
"%X c #AB8AA2",
"&X c #B48DA5",
"*X c #B589A7",
"=X c #B691A6",
"-X c #B993AA",
";X c #BB94AA",
":X c #BE91B2",
">X c #C49BB2",
",X c #C99CB5",
"<X c #C296B0",
"1X c #C89BB2",
"2X c #CEA3BA",
"3X c #D3A3BC",
"4X c #D4A9BE",
"5X c #DAACC2",
"6X c #D7A8C0",
"7X c #DEB0C5",
"8X c #E3B5C9",
"9X c None",
/* pixels */
"9X9X9X9X9X9X9X9X9X9X9X9X9X9X9X9X9X9X9X9X9X9X9X9X9X9X9X9X9X9X9X9X9X9X9X9X9X9X9X9X9X9X9X9X9X9X9X9X9X9X9X9X9X9X9X9X9X9X9X9X9X9X9X9X",
"9X9X9X9X9X9X9X9X9X9X9X9X9X9X9X9X9X9X9X9X9X9X9X9X9X9X9X9X9X9X9X9X9X9X9X9X9X9X9X9X9X9X9X9X9X9X9X9X9X9X9X9X9X9X9X9X9X9X9X9X9X9X9X9X",
"9X9X9X9X9X9X9X9X9X9X9X9X9X9X9X9X9X9X9X9X9X9X9X9X9X9X9X9X9X9X9X9X9X9X9X9X9X9X9X9X9X9X9X9X9X9X9X9X9X9X9X9X9X9X9X9X9X9X9X9X9X9X9X9X",
"9X9X9X9X9X9X9X9X9X9X9X9X9X9X9X9X9X9X9X9X9X9X9X9X9X9X9X9X9X9X9X9X9X9X9X9X9X9X9X9X9X9X9X9X9X9X9X9X9X9X9X9X9X9X9X9X9X9X9X9X9X9X9X9X",
"9X9X9X9X9X9X9X9X9X9X9X9X9X9X9X9X9X9X9X9X9X9X9X9X9X9X9X9X9X9X9X9X9X9X9X9X9X9X9X9X9X9X9X9X9X9X9X9X9X9X9X9X9X9X9X9X9X9X9X9X9X9X9X9X",
"9X9X9X9X9X9X9X9X9X9X9X9X9X9X9X9X9X9X9X9X9X9X9X9X9X9X9X9X9X9X9X9X9X9X9X9X9X9X9X9X9X9X9X9X9X9X9X9X9X9X9X9X9X9X9X9X9X9X9X9X9X9X9X9X",
"9X9X9X9X9X9X9X9X9X9X9X9X9X9X9X9X9X9X9X9X9X9X9X9X9X9X9X9X9X9X9X9X9X9X9X9X9X9X9X9X9X9X9X9X9X9X9X9X9X9X9X9X9X9X9X9X9X9X9X9X9X9X9X9X",
"9X9X9X9X9X9X9X9X9X9X9X9X9X9X9X9X9X9X9X9X9X9X9X9X9X9X9X9X9X9X9X9X9X9X9X9X9X9X9X9X9X9X9X9X9X9X9X9X9X9X9X9X9X9X9X9X9X9X9X9X9X9X9X9X",
"9X9X9X9X9X9X9X9X9X9X9X9X9X9X9X9X9X9X9X9X9X9X9X9X9X9X9X9X9X9X9X9X9X9X9X9X9X9X9X9X9X9X9X9X9X9X9X9X9X9X9X9X9X9X9X9X9X9X9X9X9X9X9X9X",
"9X9X9X9X9X9X9X9X9X9X9X9X9X9X9X9X9X9X$.W.j 9X9X9X> !.OXQ.W.9X9X9X9X9X9XW.Q.OX!.> 9X9X9Xj W.$.9X9X9X9X9X9X9X9X9X9X9X9X9X9X9X9X9X9X",
"9X9X9X9X9X9X9X9X9X9Xj 9X9X9X9X9X) ;X2X2XU 9X9X9X_ 5X2X2X;X9X9X9X9X9X9X-X4X2X5X_ 9X9X9XU 2X2X;XU 9X9X9X9X9Xj 9X9X9X9X9X9X9X9X9X9X",
"9X9X9X9X9X9X9XU |.-X-Xh 9Xh +X&X>X2XOX@.> h U 9 d @.I.OXO., I g g I , O.OXI.@.d 9 U h , @.OX2X2X%X+Xj 9Xh -X-X!.U 9X9X9X9X9X9X9X",
"9X9X9X9X9X9X9X..%XI.@.f / d @.I.W.@.g H E (.].Y.< L P Q J I ).].].].I H Q P L < R.).(.E J g $.W.I.@.d / q @.I.%XS.9X9X9X9X9X9X9X",
"9X9X9X9X9X9X9X~ Q Q T !  .P P P H - 8 J ! R R ^ f L J Q P I } R R O.J J Q J Q J | R R ! J > - J P P L  .Q Q Q Q ~ 9X9X9X9X9X9X9X",
"9X9X9X9X+X!.R ! P Q L J J L J J J - > P L J P L J P L Q T T J L Q L P T Q P P J T P J T P > - J J J L J J T Q J [ R !.+X9X9X9X9X",
"9X9X9X_ ,X|.R ^ J f d l v b v d > - > > 0 J J f 0 f H J 0 d f 0 J g f f H H f f f H H 0 > > = < t x Z v l d f J } / ~.,X_ 9X9X9X",
"9X9X9X_ %XI - P d y %.f.h.c.g.p.7.t - @ 3 v M p y 4 u v M M M M M M b s 4 y x p u M v 4 @ - 3 7.p.f.c.l.f.%.y d P - I %X_ 9X9X9X",
"9X9X9X: F.Y - ; n p.m.m.N.N.m.N.z.& + y b :.>.B >.<.1.1.1.1.1.1.1.1.1.1.1.<.<.:.B >.%.b t . & v.N.m.N.N.m.m.p.n > - Y F.: 9X9X9X",
"9X9X9X1 D.J d a D f.m.n.n.m.n.N.j.D z N 1.q.q.q.q.d.q.p.l.c.v.v.v.v.c.g.d.w.i.q.q.q.i.1.N z %.j.N.n.n.n.n.m.f.B a 6 J D.1 9X9X9X",
"9X9X9X9XG.O.;X#X+.2.n.m.N.m.N.N.u.-.i p %.1.5.q.d.c.n.N.V.B.v.n.m.b.B.C.B.b.c.i.9.9.4.%.p i 5.7.V.N.m.N.m.n.2.+.#X;XX.G.9X9X9X9X",
"9X9X9X9X/ G.XX%X2Xe.z.N.n.n.N.m.,.0.B u *.9.d.b.N.B.V.V.C.V.B.B.B.B.V.C.V.V.V.n.v.f.6.>.p B 0.,.m.N.n.m.m.z.e.3X$XXXI./ 9X9X9X9X",
"9X9X9X9XW G.'.o.Y.] a.V.x.u.x.7.z w.B c <.1.1.j.M.b.n.N.N.n.n.m.m.n.b.N.N.n.b.z.f.1.1.*.v B w.x 7.x.u.k.V.a.] Y.o.'.G.W 9X9X9X9X",
"9X9X9X9XW ]. X X| o.r.u.$.,X;X&X~.,.:.B 9.q.s.c.b.m.B.V.B.V.B.B.B.B.V.V.V.N.m.v.c.s.q.9.D >.>.~.&X-X>X$.u.r.X.'  X X].W 9X9X9X9X",
"9X9X9X9Xr ^.}.[.O.#.2XQ._ +X<X5X;Xi :.B ;.0.f.g.c.n.n.n.m.m.m.N.N.N.N.n.n.b.m.c.g.d.0.;.N D i =X6X<X+X' W.2XI.O.[.}.^.r 9X9X9X9X",
"9X9X9X9X9X{ ].}.[.'.$XR.G.E.E.3XQ.3 D N >.9.q.q.g.v.m.v.h.l.v.N.m.v.l.l.b.n.v.g.s.q.9.=.B %.# Q.3XQ./.Y.R.$X'.}.}.].{ 9X9X9X9X9X",
"9X9X9X9X9X2 [ [. X}.[.'. X/.+X3X-XS t M 0.0.q.q.1.1.5.7.7.c.b.v.c.n.h.u.8.8.4.=.q.q.q.9.M $ ] -X4X.X/.}.'.].}. X[.[ 2 9X9X9X9X9X",
"9X9X9X9X9X9XX I (.[. X}. X^.@.5X3X>X+Xs B <.;.%.#.-X-X-Xy.&.q.5.5.q.>.Y.=X;X-X$.&.;.<.B s +X<X3X4Xy.^. X}. X}.(.E X 9X9X9X9X9X9X",
"9X9X9X9X9X9X9Xe g / X.G.R.o...-X=X6X6Xk S :.B s &X5X>X<X$Xx ,.,.,.:.s $X<X>X8X#Xs S S B k 6X6X&X-X| o.R.G.X./ H 0 9X9X9X9X9X9X9X",
"9X9X9X9X9X9X9XJ Y J 0 < < : W K.! }.Q._ &X=X&X( y.$XR.R.Y.( -X=X=X#X( T.R.T.*Xy.( &X=X&X_ |.}.^ H.~ : 8 < f J L J 9X9X9X9X9X9X9X",
"9X9X9X9X9X9X9X< J P ^ ^ L 0 K P.K.}..XY.<X-X,X/ R. X[.[.E.X.,X,X5X2XO.E.[.[. XR._ ,X-X<XY..X}.K.P.r < Y ^ ^ P J < 9X9X9X9X9X9X9X",
"9X9X9X9X9X9X9XJ A.K.^.^.A.J H D.H.[.XX X{.G.'.y.}..X X[.(.X.`..X$XE.J.(.[. X.X[.G.'.o. X X.X].H.D.H H F._./.H.A.J 9X9X9X9X9X9X9X",
"9X9X9X9X9X9X9XH ! _. X}.K.Q : D.K.^.}.}. X].].[.[.}..X}.].[.[. X X].[.[.}..X}.[.}.[.].[.[.'.^.K.D.: Q K.}. XP.^ f 9X9X9X9X9X9X9X",
"9X9X9X9X9X9X9Xf S.^.}.}.L.T : w Z.D.^.`.`.'.{.'.E.(.'.'.'.'.(.'.'.'.'.E.'.{./.E.'.{.'.`.(.R.S.Z.w : W L.}.}.^.S.f 9X9X9X9X9X9X9X",
"9X9X9X9X9X9XX H ..^.{.].P.Z.K ~ | [ / 6 5 ; 5 3 ; 5 3 5 5 3 5 3 6 3 6 6 6 6 5 5 6 5 ; 5 5 / { { [ r Z.U.].{.^...f X 9X9X9X9X9X9X",
"9X9X9X9X9X9X. H S.^.`.I.L.! K `.,X:X@X4 y % u v $ v x u y z p u x u 4 y 4 b z $ v p % * 4 $X:X,X].K W L.I.].^.F.f . 9X9X9X9X9X9X",
"9X9X9X9X9X9X4 f A.^.}.)._.S.~ <X6X3X*X6 9 3 N &.u 4 k h 7 9 d g 7 7 9 7 k h 6 z >.N 3 d 5 *X6X6X;X! S._.).}.^.{ f 4 9X9X9X9X9X9X",
"9X9X9X9X9X. n d D.K.H.L.L.D.} *X2X5XoXI D.h &.i.S Z.Z.0 l C A A ) A C l q Z.Z.S i.&.h D.I .X5X2X-X{ D.K.L.G.K.D.d c + 9X9X9X9X9X",
"9X9X9X9X9Xo c M ! D.^.`.K. .Y $X,X8X*XY F.g &.f.t.F.q c -.0.2.i.i.*.5.-.m q D.t.d.&.h F.Y *X8X1XoXY  .K.].^.D.Q Z z o 9X9X9X9X9X",
"9X9X9X9X9X. $ 2.3.} I.L.D.W Y .X5X8X-Xh ` l -.g.3.j x s.1.V B %.D D B ;.s.x j ,.g.4.l ` h =X8X5XoXY W D.^.K.[ 3.2.& + 9X9X9X9X9X",
"9X9X9X9X9X+ N N a.u.3.) ` h I O.|.6X=Xb f.*.6.g.2.a.V 0.y e e W Q J H y 9.V a.2.d.5.2.f.b =X6X!.O.E h ` ) 3.u.a.D N + 9X9X9X9X9X",
"9X9X9X9X9X@ %.9.=.i.l.f.z.%.7 5 x T.@Xb q.V 0.d.2.*.c -.) D.D.P.D.D.K.) -.c =.2.g.9.V q.b @XT.x 5 9 %.z.p.c.i.=.6.:.@ 9X9X9X9X9X",
"9X9X9X9X9X@ B i.s.s.i.6.a.D p z 9.b E t v u 6.q.F t p 6.` ..[ H.J.! { ] p.z 4 F q.;.i v 7 j M 0.* p D q.6.i.i.s.q.V @ 9X9X9X9X9X",
"9X9X9X9X9Xo u <.f.s.g.i.i.6.=.V g.q.< ~ A.g &.0.Z f p 0.) e R { ..[ e A p.x 0 Z 0.&.h ^ ^ > 0.g.%.=.6.d.i.f.s.d.1.y o 9X9X9X9X9X",
"9X9X9X9X9X9X  u q.q.i.0.i.4.4.c d.i.j A.A.E %.q.Z ~ Z s.a Y [ R W [ r a 0.C ~ G i.%.E F.A.h p.d.c 4.4.i.q.i.q.q.u   9X9X9X9X9X9X",
"9X9X9X9X9X9X9XO c &.=.;.q.%.=.z 0.2.l G +.A 2.g.N A N 0.k E R Z.Z.U R k q.M A F f.*.Z +.G l 2.q.z *.%.i.1.=.%.m O 9X9X9X9X9X9X9X",
"9X9X9X9X9X9X9X9X9XO % % c m & * ;.%.c ;.p.%.*.i.V <.D -./ D.F.P.K.~ D.( 9.B >.V a.*.%.i.6.c %.;.* & c m # # O 9X9X9X9X9X9X9X9X9X",
"9X9X9X9X9X9X9X9X9X9X9X9X9X9X9X# *.%.c &.V z ;.-.m &.m &.( Z.~ D.~ w ~ U =.m V m 1.9.z V &.c %.&.# 9X9X9X9X9X9X9X9X9X9X9X9X9X9X9X",
"9X9X9X9X9X9X9X9X9X9X9X9X9X9X9X  O $ # $ o o * z O # $ * = : X : 2 9X9X+ $ $ % + z *   o $ # & .   9X9X9X9X9X9X9X9X9X9X9X9X9X9X9X",
"9X9X9X9X9X9X9X9X9X9X9X9X9X9X9X9X9X9X9X9X9X9X9X9X9X9X9X9X9X9X9X9X9X9X9X9X9X9X9X9X9X9X9X9X9X9X9X9X9X9X9X9X9X9X9X9X9X9X9X9X9X9X9X9X",
"9X9X9X9X9X9X9X9X9X9X9X9X9X9X9X9X9X9X9X9X9X9X9X9X9X9X9X9X9X9X9X9X9X9X9X9X9X9X9X9X9X9X9X9X9X9X9X9X9X9X9X9X9X9X9X9X9X9X9X9X9X9X9X9X",
"9X9X9X9X9X9X9X9X9X9X9X9X9X9X9X9X9X9X9X9X9X9X9X9X9X9X9X9X9X9X9X9X9X9X9X9X9X9X9X9X9X9X9X9X9X9X9X9X9X9X9X9X9X9X9X9X9X9X9X9X9X9X9X9X"
};
