/* XPM */
static char *cesped_verde[] = {
/* columns rows colors chars-per-pixel */
"64 26 100 2 ",
"   c #3F523E",
".  c #414D39",
"X  c #46513C",
"o  c #4B543D",
"O  c #4C5A3D",
"+  c #535C3D",
"@  c #53643D",
"#  c #5B653F",
"$  c #59693E",
"%  c #3F4E40",
"&  c #3E5342",
"*  c #4D5742",
"=  c #475C42",
"-  c #495840",
";  c #4C6242",
":  c #4F6848",
">  c #546445",
",  c #5F6241",
"<  c #546941",
"1  c #5C6A41",
"2  c #5C7245",
"3  c #5C734A",
"4  c #5E7A4A",
"5  c #616D44",
"6  c #637543",
"7  c #6A7345",
"8  c #657944",
"9  c #6C7B45",
"0  c #627248",
"q  c #627C49",
"w  c #697D48",
"e  c #747A46",
"r  c #727C49",
"t  c #787A48",
"y  c #6D8146",
"u  c #66814B",
"i  c #6D8349",
"p  c #6D894D",
"a  c #738646",
"s  c #7A8347",
"d  c #768F47",
"f  c #7A8C46",
"g  c #748349",
"h  c #7B834A",
"j  c #748A4A",
"k  c #7C8D48",
"l  c #76914E",
"z  c #7E954D",
"x  c #7E984D",
"c  c #658251",
"v  c #758652",
"b  c #6F9051",
"n  c #769354",
"m  c #7D9553",
"M  c #7B9C53",
"N  c #7E9F59",
"B  c #848E4B",
"V  c #888F4F",
"C  c #81934B",
"Z  c #8C924E",
"A  c #839C4E",
"S  c #8B9C4D",
"D  c #929E4E",
"F  c #809354",
"G  c #8B9750",
"H  c #849B53",
"J  c #899D55",
"K  c #8A9F5C",
"L  c #8CA34F",
"P  c #95A54F",
"I  c #8CA353",
"U  c #87AA55",
"Y  c #8CAB55",
"T  c #89A45A",
"R  c #85AB5E",
"E  c #8BAE5C",
"W  c #94A452",
"Q  c #99A652",
"!  c #94AC55",
"~  c #9CAB54",
"^  c #91A45A",
"/  c #94AE5D",
"(  c #9AAE5E",
")  c #8EB257",
"_  c #8DB159",
"`  c #94B356",
"'  c #9BB555",
"]  c #94B15A",
"[  c #9BB25A",
"{  c #A2AD52",
"}  c #A2B655",
"|  c #A4B854",
" . c #ACB956",
".. c #A2B45A",
"X. c #AAB659",
"o. c #87AB60",
"O. c #8DAA61",
"+. c #95AC61",
"@. c #99AE60",
"#. c None",
/* pixels */
"#.#.#.#.#.#.#.#.#.#.#.#.#.#.#.#.#.#.< 8 8 s e r s a y e B h Z s a g t 2 #.5 7 6 j e 7 #.#.#.#.#.#.#.#.#.#.#.#.#.#.#.#.#.#.#.#.#.",
"#.#.#.#.#.#.#.#.#.#.#.#.#.#.#.#.#.#.u Y [ ' ` [ } ` ` } ' ' | [ ` } ! M @ 9 Y ! } Y a #.#.#.#.#.#.#.#.#.#.#.#.#.#.#.#.#.#.#.#.#.",
"#.#.#.#.#.#.#.#.#.#.#.#.#.#.#.#.#.#.r I / / ` _ ` / / / ] _ ` ] / / ] E 0 5 S / ] ] n #.#.#.#.#.#.#.#.#.#.#.#.#.#.#.#.#.#.#.#.#.",
"#.#.#.#.#.#.#.#.#.#.#.#.#.#.#.#.#.#.j ` ) ] ' ' | ' ) / ' ' } } ` E [ ` 9 6 ` _ ] ' x #.#.#.#.#.#.#.#.#.#.#.#.#.#.#.#.#.#.#.#.#.",
"#.#.#.#.#.#.#.#.#.#.#.#.#.#.#.#.#.#.j / [ } ' ] ` / ( [ ..' ] ] / [ } [ 6 8 / ( ..' F #.#.#.#.#.#.#.#.#.#.#.#.#.#.#.#.#.#.#.#.#.",
"#.#.#.#.#.#.#.#.#.#.#.#.#.#.#.#.#.#.C ] ] [ } } } [ ] ] ' | } [ ] ] [ [ 8 9 [ / [ ' S X #.#.#.#.#.#.#.#.#.#.#.#.#.#.#.#.#.#.#.#.",
"#.#.#.#.#.#.#.#.#.#.#.#.#.#.#.#.#.#.L ' R o.o.E } } _ R R O.`  .` R R H 2 f ' R o.o.c = #.#.#.#.#.#.#.#.#.#.#.#.#.#.#.#.#.#.#.#.",
"#.#.#.#.#.#.#.#.#.#.#.#.#.#.#.#.#.#.C ' ] [ ..X. .| ` [ .... . .` ] } ~ 7 9 ' ` [ ..C #.#.#.#.#.#.#.#.#.#.#.#.#.#.#.#.#.#.#.#.#.",
"#.#.#.#.#.#.#.#.#.#.#.#.#.#.#.#.#.#.u E [ ] ) ` ` _ ] [ ` ) ` ` ] [ ] ) 2 2 E ] [ ) M #.#.#.#.#.#.#.#.#.#.#.#.#.#.#.#.#.#.#.#.#.",
"#.#.#.#.#.#.#.#.#.#.#.#.#.#.#.#.#.#.j ] O.[ ` ' } [ / E [ ` } [ ] E [ ` 9 8 / ] / ' A #.#.#.#.#.#.#.#.#.#.#.#.#.#.#.#.#.#.#.#.#.",
"#.#.#.#.#.#.#.#.#.#.#.#.#.#.#.#.#.#.l ) ] [ [ ] ' ` ] ] [ ` ' ' ` ] [ ! 1 8 Y ` [ [ l #.#.#.#.#.#.#.#.#.#.#.#.#.#.#.#.#.#.#.#.#.",
"#.#.#.#.#.#.#.#.#.#.#.#.#.#.#.#.#.#.s W [ ..} | [ ( [ ....| } ( @.....} 9 7 I ( } ..S #.#.#.#.#.#.#.#.#.#.#.#.#.#.#.#.#.#.#.#.#.",
"#.#.#.#.#.#.#.#.#.#.#.#.#.#.#.#.#.#.S ] _ _ _ ] | ' _ E ) _ ' } _ E _ ) i j ] _ _ _ M #.#.#.#.#.#.#.#.#.#.#.#.#.#.#.#.#.#.#.#.#.",
"#.#.#.#.#.#.#.#.#.#.#.#.#.#.#.#.#.#.i ` E O.+.[  .| _ O.+.+... .` E O.J 6 r ' _ O.T v #.#.#.#.#.#.#.#.#.#.#.#.#.#.#.#.#.#.#.#.#.",
"#.#.#.#.#.#.#.#.#.#.#.#.#.#.#.#.#.#.j ` ' ' ' } } ] ` } ' } | [ ) ' } ' 9 7 ` ' } ' I #.#.#.#.#.#.#.#.#.#.#.#.#.#.#.#.#.#.#.#.#.",
"#.#.#.#.#.#.#.#.#.#.#.#.#.#.#.#.#.#.g / +.] _ _ [ ] ] / ` ) ` ` ] +.] _ q 5 I +./ ] M #.#.#.#.#.#.#.#.#.#.#.#.#.#.#.#.#.#.#.#.#.",
"#.#.#.#.#.#.#.#.#.#.#.#.#.#.#.#.#.#.C ` E [ ' ' } ' ) _ [ ' } ' ` _ [ [ 6 8 ] _ ] ' A #.#.#.#.#.#.#.#.#.#.#.#.#.#.#.#.#.#.#.#.#.",
"#.#.#.#.#.#.#.#.#.#.#.#.#.#.#.#.#.#.B [ [ ..[ [ ` ] ( ..' ' [ ` [ [ ..R 3 8 / ] ..' z #.#.#.#.#.#.#.#.#.#.#.#.#.#.#.#.#.#.#.#.#.",
"#.#.#.#.#.#.#.#.#.#.#.#.#.#.#.#.#.#.9 A H T P P ~ I T H W Q ~ m m J H n : 1 m H J J f #.#.#.#.#.#.#.#.#.#.#.#.#.#.#.#.#.#.#.#.#.",
"#.#.#.#.#.#.#.#.#.#.#.#.#.#.#.#.#.#.#..   o + @ $ O = X > * 2 O = & . O #.#.X X O X + #.#.#.#.#.#.#.#.#.#.#.#.#.#.#.#.#.#.#.#.#.",
"#.#.#.#.#.#.#.#.#.#.#.#.#.#.#.#.#.#.r A A Q D D ~ L L P ~ W { P I I Z C # 7 A A Q Z s #.#.#.#.#.#.#.#.#.#.#.#.#.#.#.#.#.#.#.#.#.",
"#.#.#.#.#.#.#.#.#.#.#.#.#.#.#.#.#.#.w I ] ] ) ` ` _ ] [ ] ` ` ` _ [ ] U > 8 Y ] [ ) p #.#.#.#.#.#.#.#.#.#.#.#.#.#.#.#.#.#.#.#.#.",
"#.#.#.#.#.#.#.#.#.#.#.#.#.#.#.#.#.#.a ! E [ ` ' } [ / / [ ` ' [ / E [ ` q r ] _ ] ' z #.#.#.#.#.#.#.#.#.#.#.#.#.#.#.#.#.#.#.#.#.",
"#.#.#.#.#.#.#.#.#.#.#.#.#.#.#.#.#.#.z ` ] ' ] ] ' ` ` ` [ ` ' ' ` ` [ Y q 9 ` ] ] [ x #.#.#.#.#.#.#.#.#.#.#.#.#.#.#.#.#.#.#.#.#.",
"#.#.#.#.#.#.#.#.#.#.#.#.#.#.#.#.#.#.i / ( ..} } ( / ( ....} [ / / ....G 5 2 ^ @...} C #.#.#.#.#.#.#.#.#.#.#.#.#.#.#.#.#.#.#.#.#.",
"#.#.#.#.#.#.#.#.#.#.#.#.#.#.#.#.#.#.> 3 q q a a C y p 2 a w C 8 3 q 2 8 #.#.3 q q 8 6 #.#.#.#.#.#.#.#.#.#.#.#.#.#.#.#.#.#.#.#.#."
};
