/* XPM */
static char *tower_red[] = {
/* columns rows colors chars-per-pixel */
"32 64 206 2 ",
"   c #131A2D",
".  c #1A1E30",
"X  c #1E2130",
"o  c #232432",
"O  c #282734",
"+  c #2C2A35",
"@  c #2E2C38",
"#  c #2D273A",
"$  c #322735",
"%  c #322B37",
"&  c #352E3A",
"*  c #3B2A39",
"=  c #392936",
"-  c #363038",
";  c #3E353C",
":  c #4B2F3C",
">  c #42353C",
",  c #4F303B",
"<  c #443B3C",
"1  c #483C3A",
"2  c #4E423E",
"3  c #362E40",
"4  c #3A2F46",
"5  c #3F3045",
"6  c #433444",
"7  c #4A3244",
"8  c #423E43",
"9  c #4B3A44",
"0  c #423049",
"q  c #4C364D",
"w  c #4C3849",
"e  c #5A3644",
"r  c #523940",
"t  c #543D4B",
"y  c #553B48",
"u  c #4C3750",
"i  c #4F3851",
"p  c #543A54",
"a  c #5B3D56",
"s  c #5E3D5A",
"d  c #653B44",
"f  c #6C3B45",
"g  c #623D4B",
"h  c #6D3D4A",
"j  c #703C44",
"k  c #603E5A",
"l  c #623C51",
"z  c #534343",
"x  c #5B4545",
"c  c #5C4944",
"v  c #5C4349",
"b  c #594C4D",
"n  c #544749",
"m  c #624546",
"M  c #6E4745",
"N  c #634C46",
"B  c #6C4845",
"V  c #67454B",
"C  c #624A4B",
"Z  c #724B45",
"A  c #744649",
"S  c #7A414C",
"D  c #79494D",
"F  c #665043",
"G  c #6B5345",
"H  c #6B5C4C",
"J  c #69564B",
"K  c #735A47",
"L  c #795D47",
"P  c #715C49",
"I  c #7C5E4B",
"U  c #74554A",
"Y  c #65425D",
"T  c #6A425C",
"R  c #654457",
"E  c #7C475B",
"W  c #754956",
"Q  c #665652",
"!  c #705150",
"~  c #765859",
"^  c #73614B",
"/  c #7D624A",
"(  c #7F694F",
")  c #7D6550",
"_  c #736357",
"`  c #674360",
"'  c #6C4462",
"]  c #714665",
"[  c #754965",
"{  c #7B4760",
"}  c #7D5068",
"|  c #84444C",
" . c #8A464C",
".. c #8A4D4E",
"X. c #974F4E",
"o. c #81564E",
"O. c #8B4A53",
"+. c #814758",
"@. c #8D4B5B",
"#. c #85495B",
"$. c #9B4D54",
"%. c #964E5C",
"&. c #9A4F5C",
"*. c #934A50",
"=. c #8B5454",
"-. c #835B55",
";. c #875753",
":. c #9C515C",
">. c #975857",
",. c #A34F56",
"<. c #A55057",
"1. c #AB5356",
"2. c #A3525B",
"3. c #AA5358",
"4. c #AF5B5C",
"5. c #A35852",
"6. c #B25456",
"7. c #B25D5C",
"8. c #B55B59",
"9. c #83654B",
"0. c #89664D",
"q. c #866A4E",
"w. c #8B694C",
"e. c #9D744F",
"r. c #95724E",
"t. c #8D6C51",
"y. c #826D5F",
"u. c #966F51",
"i. c #94645B",
"p. c #9B635B",
"a. c #8B7554",
"s. c #9C7352",
"d. c #9C7B54",
"f. c #947754",
"g. c #A9665E",
"h. c #A1695E",
"j. c #A6685E",
"k. c #B8655D",
"l. c #A17651",
"z. c #A67C56",
"x. c #AA7C53",
"c. c #8C4C60",
"v. c #865368",
"b. c #A25C61",
"n. c #836B61",
"m. c #986061",
"M. c #877162",
"N. c #8C7565",
"B. c #9A7769",
"V. c #9D7E6A",
"C. c #987766",
"Z. c #AC6362",
"A. c #AB6C61",
"S. c #BD6D62",
"D. c #B16663",
"F. c #AE7465",
"G. c #A17D69",
"H. c #AB7E6B",
"J. c #B67465",
"K. c #BD7365",
"L. c #BC7568",
"P. c #BB7968",
"I. c #B57968",
"U. c #C06F63",
"Y. c #C17466",
"T. c #C27768",
"R. c #C37B6A",
"E. c #9C835A",
"W. c #A58056",
"Q. c #A1855B",
"!. c #A48A5D",
"~. c #AC895B",
"^. c #B18A5C",
"/. c #B48A5A",
"(. c #9D816B",
"). c #AB8F60",
"_. c #A6836D",
"`. c #AC9060",
"'. c #B39763",
"]. c #BC9C65",
"[. c #B99762",
"{. c #A98A71",
"}. c #A78771",
"|. c #B98D78",
" X c #BA9276",
".X c #C6826D",
"XX c #C8846F",
"oX c #C29D64",
"OX c #CC9F7E",
"+X c #C2977B",
"@X c #D19E7D",
"#X c #C18A76",
"$X c #CAA266",
"%X c #C6A569",
"&X c #CEAA6B",
"*X c #C4A166",
"=X c #D3AD6C",
"-X c #D0A769",
";X c #D5B16E",
":X c #DAB46F",
">X c #C89E82",
",X c #D5A381",
"<X c #D9A884",
"1X c #D9AA85",
"2X c #DCB089",
"3X c None",
/* pixels */
"3X3X3X3X3X3X3X3X3X3X3X3X3X3X3X3X3X3X3X3X3X3X3X3X3X3X3X3X3X3X3X3X",
"3X3X3X3X3X3X3X3X3X3X3X3X3X3X3X3X3X3X3X3X3X3X3X3X3X3X3X3X3X3X3X3X",
"3X3X3X3X3X3X3X3X3X3X3X3X3X3X3X3X3X3X3X3X3X3X3X3X3X3X3X3X3X3X3X3X",
"3X3X3X3X3X3X3X3X3X3X3X3X3X3X3X3X3X3X3X3X3X3X3X3X3X3X3X3X3X3X3X3X",
"3X3X3X3X3X3X3X3X3X3X3X3X3X3X3X3X3X3X3X3X3X3X3X3X3X3X3X3X3X3X3X3X",
"3X3X3X3X3X3X3X3X3X3X3X3X3X3X3X3X3X3X3X3X3X3X3X3X3X3X3X3X3X3X3X3X",
"3X3X3X3X3X3X3X3X3X3X3X3X3X3X3X3X3X3X3X3X3X3X3X3X3X3X3X3X3X3X3X3X",
"3X3X3X3X3X3X3X3X3X3X3X3X3X3X3X3X3X3X3X3X3X3X3X3X3X3X3X3X3X3X3X3X",
"3X3X3X3X3X3X3X3X3X3X3X3X3X3X3X3X3X3X3X3X3X3X3X3X3X3X3X3X3X3X3X3X",
"3X3X3X3X3X3X3X3X3X3X3X3X3X3X3X3X3X3X3X3X3X3X3X3X3X3X3X3X3X3X3X3X",
"3X3X3X3X3X3X3X3X3X3X3X3X3X3X3X3X3X3X3X3X3X3X3X3X3X3X3X3X3X3X3X3X",
"3X3X3X3X3X3X3X3X3X3X3X3X3X3X3X3X3X3X3X3X3X3X3X3X3X3X3X3X3X3X3X3X",
"3X3X3X3X3X3X3X3X3X3X3X3X3X3X3X3X3X3X3X3X3X3X3X3X3X3X3X3X3X3X3X3X",
"3X3X3X3X3X3X3X3X3X@ z Q Q 3X3X3X3X3X3XQ Q z @ 3X3X3X3X3X3X3X3X3X",
"3X3X3X3X3X3X3X8 M._.+X,X X3X3X3X3X3X3X XOX+X{.M.z 3X3X3X3X3X3X3X",
"3X3X3X3X3X3X3Xt >X,XB.|.n.% > x y > @ n.|.#X1X|.t 3X3X3X3X3X3X3X",
"3X3X3X3X3X3X3Xj O.~ [ [ Y v A.A.A.A.C s [ } } o.j 3X3X3X3X3X3X3X",
"3X3X3X3X3X3X3Xf  .k ] ] ' R v.T Y v.R ' ' ] Y  .d 3X3X3X3X3X3X3X",
"3X3X3XN.(.n x ..h ' ' ` ` ' ' ] ] ' ' ` ' ] ' f ..m n (.N.3X3X3X",
"3X3XC >X<X_.p.Z.l ` ] Y ` k p s a p Y Y ' ' ' l g.p.G.,XOXC 3X3X",
"3X3Xy.<X Xb C [ ] Y p 9 N / L G 9.w./ N 9 p Y ] [ b b |.<Xy.3X3X",
"3X3XM.>XB.& 4 ` ' w > / s.W.d.W.^.d.W.z.9.x w ' ` 4 3 B.>XN.3X3X",
"3X3Xr :.$.q p p 9 K ~.oX[.oX%X=X&X*X*X].].W.0.v p p 7 $.%.1 3X3X",
"3X3Xd :.<.g p 3 c 9.].-X=X].$X-X%X].].=X:XoXf.G 3 p l <.2.f 3X3X",
"3X3Xe $. .y 5 9 0.~.oX=X;X%X%X=X&X%X%X;X;X$X~.I < 5 w O.,.e 3X3X",
"3X3X= ..=.b V.}./ / d.[.%X~.$X%X[.'.].$X*Xd.L J B.M.b ;...$ 3X3X",
"3X3X= h.m _.,X1X}.N oX;X;X`.!.].'.E.).;X-X/.c }.@X,XH.m h.% 3X3X",
"3X3XX W ! L.i.N.p.A d.=XE._ {._.(.{._ E.-XE.D >.N.h.L.! W X 3X3X",
"3X3Xo S D L.J.-.O.A r.oXf.V.@X<X2X1XV.a.=Xd.D O.;.P.L.D S o 3X3X",
"3X3X3XS b.Y.R.R.$.D -.t.z C.B._._._.C.c s.o.D $.R.R.L.b.S 3X3X3X",
"3X3X3Xh b..XR.g.m F.T.I.m F.g.i.p.A.F.C J.K.A.m g.R..X4.h 3X3X3X",
"3X3X3Xe 2.L.Y.L.p.K.Y.P.i.P.Y..XXXXXR.;.J.Y.Y.>.L..XP.:.e 3X3X3X",
"3X3X3X* *.7.K.Y.k.R.R.P.h.Y.K.R.R.Y.T.h.I.R.R.U.T.L.7.*.* 3X3X3X",
"3X3X3X3X: @.S.R.R.R.T.T..XY.R.XXR.T.R..XY.Y.Y.T.R.J.@., 3X3X3X3X",
"3X3X3X3X3X* >.T.Y.XXR.S.Y.Y.R.R.Y.R.K.R.U.R..XK.T.>.* 3X3X3X3X3X",
"3X3X3X3X3X3X# o.k.R.Y.k.Y.T.R.L.Y.R.R.U.S.Y.T.S.o.% 3X3X3X3X3X3X",
"3X3X3X3X3X3X  # V >.P.XXR.Y.T.Y.Y.R.Y.T.XXL.p.V #   3X3X3X3X3X3X",
"3X3X3X3X3X3X. p Y t v -.i.>.I.F.F.F.p.i.-.t q Y p 3X3X3X3X3X3X3X",
"3X3X3X3X3X3X. p ' ] ` p u 4 6 6 6 6 4 q a ` ] ` p 3X3X3X3X3X3X3X",
"3X3X3X3X3X3X. p ' ' ] ] [ ' Y ] ] k ' [ ' ] ] ' p 3X3X3X3X3X3X3X",
"3X3X3X3X3X3X. p ' E %.c.E ' Y ' ' ` [ ] #.%.E ' p 3X3X3X3X3X3X3X",
"3X3X3X3X3X3X. i ` @.6.6.3.&.:.c.2.2.:.&.3.6.%.` u . 3X3X3X3X3X3X",
"3X3X3X3X3X3Xo i [ 2.<.:.%.O.O.=.5.$.O.%.&.6.2.[ p o 3X3X3X3X3X3X",
"3X3X3X3X3X3X; i ' :.3.+.V ) Q.~.).Q./ V +.&.%.' u ; 3X3X3X3X3X3X",
"3X3X3X3X3X; c i ] c.<.c H P q./ / q.^ H m <.:.] u c ; 3X3X3X3X3X",
"3X3X3X3X3Xo K x T %. .z K l.s.s.e.e.l.K z  .:.T v P o 3X3X3X3X3X",
"3X3X3X3X3Xo G 9.y $.| 1 l.F & 6 ; & F l.1 | %.t 9.G o 3X3X3X3X3X",
"3X3X3X3X3X@ > ( E.M f K G 0 u { { 7 6 B K j M E.q.> + 3X3X3X3X3X",
"3X3X3X3X3X& N J f.).< L z E O.4.7.@.E r / < ~.f.H N % 3X3X3X3X3X",
"3X3X3X3X3X- ) w.9./ ^ L B <.2.S.K.2.,.B / ^ ^ L w.-.- 3X3X3X3X3X",
"3X3X3X3X3X- I s.s.E.Q.0.Z 6.D.K.Y.Z.1.Z 9.Q.f.r.s.I - 3X3X3X3X3X",
"3X3X3X3X3X- ! z.z.^.Q.0.Z 6.>.P.P.S.8.Z 9.Q./.z.z.U - 3X3X3X3X3X",
"3X3X3X3X3XO x u.x.~.!.9.Z 1.X.P.K.8.6.Z 0.!.^.x.u.n O 3X3X3X3X3X",
"3X3X3X3X3X3X+ c e.a.!./ M <.$.k.8.3.<.B / Q.d.l.J + 3X3X3X3X3X3X",
"3X3X3X3X3X3X3XX L 0.q.F B $. .1.6...$.Z K t.G 2 + 3X3X3X3X3X3X3X",
"3X3X3X3X3X3X3X3X< 1 o + & 7 : S | , 7 - + o o 3X3X3X3X3X3X3X3X3X",
"3X3X3X3X3X3X3X3X3X3X3X3X3X3X3X3X3X3X3X3X3X3X3X3X3X3X3X3X3X3X3X3X",
"3X3X3X3X3X3X3X3X3X3X3X3X3X3X3X3X3X3X3X3X3X3X3X3X3X3X3X3X3X3X3X3X",
"3X3X3X3X3X3X3X3X3X3X3X3X3X3X3X3X3X3X3X3X3X3X3X3X3X3X3X3X3X3X3X3X",
"3X3X3X3X3X3X3X3X3X3X3X3X3X3X3X3X3X3X3X3X3X3X3X3X3X3X3X3X3X3X3X3X",
"3X3X3X3X3X3X3X3X3X3X3X3X3X3X3X3X3X3X3X3X3X3X3X3X3X3X3X3X3X3X3X3X",
"3X3X3X3X3X3X3X3X3X3X3X3X3X3X3X3X3X3X3X3X3X3X3X3X3X3X3X3X3X3X3X3X",
"3X3X3X3X3X3X3X3X3X3X3X3X3X3X3X3X3X3X3X3X3X3X3X3X3X3X3X3X3X3X3X3X",
"3X3X3X3X3X3X3X3X3X3X3X3X3X3X3X3X3X3X3X3X3X3X3X3X3X3X3X3X3X3X3X3X"
};
